<?xml version="1.0" encoding="UTF-8" standalone="no"?>
<svg
   id="Layer_1"
   data-name="Layer 1"
   viewBox="0 0 1195 487.0957"
   version="1.1"
   sodipodi:docname="hagal_original_svg.svg"
   inkscape:version="1.1 (c68e22c387, 2021-05-23)"
   xmlns:inkscape="http://www.inkscape.org/namespaces/inkscape"
   xmlns:sodipodi="http://sodipodi.sourceforge.net/DTD/sodipodi-0.dtd"
   xmlns="http://www.w3.org/2000/svg"
   xmlns:svg="http://www.w3.org/2000/svg">
  <defs
     id="defs27" />
  <sodipodi:namedview
     id="namedview25"
     pagecolor="#ffffff"
     bordercolor="#666666"
     borderopacity="1.0"
     inkscape:pageshadow="2"
     inkscape:pageopacity="0.0"
     inkscape:pagecheckerboard="0"
     showgrid="false"
     inkscape:zoom="1.0476987"
     inkscape:cx="408.99161"
     inkscape:cy="243.86781"
     inkscape:window-width="2560"
     inkscape:window-height="1361"
     inkscape:window-x="-9"
     inkscape:window-y="-9"
     inkscape:window-maximized="1"
     inkscape:current-layer="Layer_1" />
  <title
     id="title2">Hagal Original Logo</title>
  <g
     id="g14">
    <path
       d="M220.346,344.53294q.06315,57.31246.12641,114.62491h-47.2115V223.774h47.2115v61.55667q51.03206,26.19486,102.064,52.38963-.61716-56.97315-1.23413-113.9463h47.2115v235.3839h-47.2115V394.47Q270.82407,369.50152,220.346,344.53294ZM142,347.93929"
       transform="translate(-142 -146.21777)"
       style="fill: #4ea246"
       id="path4" />
    <path
       d="M488.2299,259.08154c30.01178,0,50.58292,14.16095,61.71176,29.6758v-26.642h47.54749v186.8235H549.94166v-27.3173c-11.12884,16.1868-32.3736,30.35108-62.0494,30.35108-47.21151,0-84.98071-38.78046-84.98071-97.12081S440.68075,259.08154,488.2299,259.08154Zm12.13844,41.47826c-25.29147,0-49.234,18.8846-49.234,54.292,0,35.41071,23.94256,55.64255,49.234,55.64255,25.96674,0,49.57332-19.55989,49.57332-54.96727S526.33508,300.5598,500.36834,300.5598Z"
       transform="translate(-142 -146.21777)"
       style="fill: #4ea246"
       id="path6" />
    <path
       d="M716.86764,259.08154c29.33983,0,50.58292,13.489,61.71343,29.6758v-26.642h47.54914V450.28605c0,50.58625-31.02636,90.714-92.40049,90.714-52.60877,0-89.36671-26.30272-94.08537-69.13155h46.87221c4.72364,16.86209,22.25768,27.98926,45.8626,27.98926,25.96674,0,46.20191-14.83623,46.20191-49.57166V421.28553c-11.13051,16.1868-32.3736,30.68706-61.71343,30.68706-47.54915,0-85.31669-38.78046-85.31669-97.12081S669.31849,259.08154,716.86764,259.08154ZM729.0094,300.5598c-25.29478,0-49.23568,18.8846-49.23568,54.292,0,35.41071,23.9409,55.64255,49.23568,55.64255,25.96342,0,49.57167-19.55989,49.57167-54.96727S754.97282,300.5598,729.0094,300.5598Z"
       transform="translate(-142 -146.21777)"
       style="fill: #4ea246"
       id="path8" />
    <path
       d="M945.50871,259.08154c30.01178,0,50.58292,14.16095,61.7101,29.6758v-26.642H1054.768v186.8235h-47.54915v-27.3173c-11.12718,16.1868-32.3736,30.35108-62.04941,30.35108-47.20984,0-84.979-38.78046-84.979-97.12081S897.95956,259.08154,945.50871,259.08154Zm12.13844,41.47826c-25.29147,0-49.23569,18.8846-49.23569,54.292,0,35.41071,23.94422,55.64255,49.23569,55.64255,25.96674,0,49.57166-19.55989,49.57166-54.96727S983.61389,300.5598,957.64715,300.5598Z"
       transform="translate(-142 -146.21777)"
       style="fill: #4ea246"
       id="path10" />
    <path
       d="M1100.96986,199.39063h47.20985V448.93881h-47.20985Z"
       transform="translate(-142 -146.21777)"
       style="fill: #4ea246"
       id="path12" />
  </g>
  <text
     transform="translate(1037.27979 45.08203) scale(1.4 1.18)"
     style="font-size: 45px;font-family: Poppins-Regular, Poppins;letter-spacing: 0.001999628010243938em"
     id="text16">TM</text>
  <text
     transform="translate(31.26074 453.92188)"
     style="font-size: 57px;fill: #999;font-family: Poppins-Medium, Poppins;font-weight: 500;letter-spacing: 0.06799958881578948em"
     id="text22">ULTIMATE SUST<tspan
   x="469.38818"
   y="0"
   style="letter-spacing: 0.06799102247807018em;fill!: #000"
   id="tspan18">AI</tspan><tspan
   x="531.91602"
   y="0"
   style="letter-spacing: 0.06799102247807018em"
   id="tspan20">NABLE ENERGY</tspan></text>
</svg>
